<svg width="1240" height="432" viewBox="0 0 1240 432" fill="none" xmlns="http://www.w3.org/2000/svg">
<rect x="1.42105" y="1.42105" width="1237.16" height="429.158" rx="214.579" fill="white" stroke="black" stroke-width="2.84211"/>
<path d="M315.266 94.5671C319.862 94.5672 323.435 95.8298 325.847 98.4714C328.247 101.101 329.385 104.976 329.385 109.966V259.438C329.385 289.496 322.294 313.008 308.021 329.881L308.018 329.885C293.717 346.5 272.587 354.757 244.758 354.757C217.215 354.756 196.231 346.498 181.932 329.885L181.923 329.876C167.941 313.003 160.996 289.493 160.996 259.438V109.966C160.996 104.981 162.096 101.109 164.419 98.4792C166.757 95.8333 170.224 94.5671 174.684 94.5671C179.28 94.5671 182.854 95.8297 185.266 98.4714C187.666 101.101 188.804 104.976 188.804 109.966V259.438C188.804 282.689 193.513 299.995 202.812 311.479C212.087 322.934 226.024 328.712 244.758 328.712C263.784 328.712 277.939 322.932 287.357 311.475C296.798 299.992 301.578 282.687 301.578 259.438V109.966C301.578 104.981 302.677 101.109 305 98.4792C307.338 95.8331 310.806 94.5671 315.266 94.5671ZM1069.86 94.5671C1074.46 94.5671 1078.03 95.8297 1080.44 98.4714C1082.84 101.101 1083.98 104.976 1083.98 109.966V259.438C1083.98 289.496 1076.89 313.008 1062.62 329.881L1062.61 329.885C1048.31 346.5 1027.18 354.757 999.353 354.757C971.809 354.757 950.825 346.498 936.525 329.885L936.517 329.876C922.535 313.003 915.591 289.493 915.591 259.438V109.966C915.591 104.981 916.69 101.109 919.013 98.4792C921.351 95.8331 924.819 94.5671 929.278 94.5671C933.875 94.5671 937.449 95.8297 939.86 98.4714C942.261 101.101 943.398 104.976 943.398 109.966V259.438C943.398 282.689 948.108 299.995 957.406 311.479C966.682 322.934 980.618 328.712 999.353 328.712C1018.38 328.712 1032.53 322.932 1041.95 311.475C1051.39 299.992 1056.17 282.687 1056.17 259.438V109.966C1056.17 104.981 1057.27 101.109 1059.59 98.4792C1061.93 95.8333 1065.4 94.5671 1069.86 94.5671ZM623.078 112.28C638.744 112.28 652.276 115.466 663.647 121.871C675.294 128.268 684.189 137.002 690.313 148.07C696.723 158.844 699.918 171.206 699.918 185.134C699.918 196.187 697.443 207.372 692.506 218.682L692.503 218.688C687.577 229.684 681.205 240.386 673.39 250.793C665.991 261.023 657.891 270.832 649.093 280.221C660.173 294.915 670.087 305.196 678.834 311.116H678.835C683.428 314.126 687.463 316.371 690.944 317.861C694.433 319.354 697.325 320.071 699.641 320.071C704.793 320.071 709.356 319.643 713.334 318.792C717.349 317.933 721.071 316.93 724.504 315.788L725.439 315.476V347.124L725.068 347.326C721.803 349.105 717.399 350.416 711.891 351.287C706.656 352.447 701.418 353.029 696.18 353.029C690.03 353.029 683.324 351.713 676.066 349.106V349.107C668.746 346.768 660.738 342.104 652.048 335.161L652.043 335.157L652.037 335.152C643.482 328.032 633.833 317.713 623.085 304.216C607.719 324.001 593.987 337.111 581.882 343.444L581.881 343.443C569.993 349.813 559.065 353.029 549.11 353.029C543.873 353.029 538.495 352.447 532.979 351.289C527.746 350.417 523.351 349.105 519.812 347.338L519.418 347.141V315.476L520.354 315.788C522.049 316.352 525.335 317.209 530.24 318.362C535.102 319.504 539.516 320.071 543.487 320.071C550.211 320.071 557.854 317.272 566.438 311.559C574.907 305.638 584.826 295.211 596.194 280.222C581.358 264.498 569.207 248.765 559.748 233.02L559.743 233.011C550.462 217.08 545.805 201.119 545.805 185.134C545.805 171.201 549.002 158.834 555.416 148.057C561.825 137.001 570.714 128.272 582.068 121.875L582.075 121.871C593.733 115.468 607.408 112.28 623.078 112.28ZM443.999 137.336C469.911 137.336 490.56 157.957 490.561 183.838C490.561 209.719 469.911 230.34 443.999 230.341C418.087 230.341 397.437 209.719 397.437 183.838C397.437 157.957 418.087 137.336 443.999 137.336ZM800.809 137.336C826.721 137.336 847.37 157.957 847.37 183.838C847.37 209.719 826.721 230.34 800.809 230.341C774.896 230.341 754.247 209.719 754.247 183.838C754.247 157.957 774.896 137.336 800.809 137.336Z" fill="black" stroke="black" stroke-width="1.42105"/>
</svg>
