<svg width="860" height="320" viewBox="0 0 860 320" fill="none" xmlns="http://www.w3.org/2000/svg">
<rect width="860" height="320" rx="160" fill="black"/>
<path d="M173.72 243.92C210.4 243.92 228.04 220.68 228.04 182.6V85.72C228.04 79.56 224.4 76.2 219.36 76.2C214.32 76.2 210.96 79.56 210.96 85.72V182.6C210.96 214.8 196.96 227.96 173.72 227.96C151.04 227.96 137.04 214.8 137.04 182.6V85.72C137.04 79.56 133.4 76.2 128.36 76.2C123.32 76.2 119.96 79.56 119.96 85.72V182.6C119.96 220.68 137.6 243.92 173.72 243.92Z" fill="white"/>
<path d="M302.691 103.92C286.171 103.92 273.011 117.08 273.011 133.6C273.011 150.12 286.171 163.28 302.691 163.28C319.211 163.28 332.371 150.12 332.371 133.6C332.371 117.08 319.211 103.92 302.691 103.92Z" fill="white"/>
<path d="M392.011 247.28C411.051 247.28 422.251 235.52 431.491 222.92C440.731 235.52 451.931 247.28 470.971 247.28C477.971 247.28 484.131 245.32 484.131 238.88C484.131 234.96 481.051 231.32 476.571 231.32C474.891 231.32 471.811 231.88 469.851 231.88C460.891 231.88 450.251 220.12 444.371 211.72C456.411 198.84 469.571 182.32 469.571 164.12C469.571 143.12 453.611 128.28 431.491 128.28C409.371 128.28 393.411 143.12 393.411 164.12C393.411 182.32 406.571 198.84 418.611 211.72C412.731 220.12 402.091 231.88 393.131 231.88C391.171 231.88 388.091 231.32 386.411 231.32C381.931 231.32 378.851 234.96 378.851 238.88C378.851 245.32 385.011 247.28 392.011 247.28Z" fill="white"/>
<path d="M560.181 103.92C543.661 103.92 530.501 117.08 530.501 133.6C530.501 150.12 543.661 163.28 560.181 163.28C576.701 163.28 589.861 150.12 589.861 133.6C589.861 117.08 576.701 103.92 560.181 103.92Z" fill="white"/>
<path d="M688.701 243.92C725.381 243.92 743.021 220.68 743.021 182.6V85.72C743.021 79.56 739.381 76.2 734.341 76.2C729.301 76.2 725.941 79.56 725.941 85.72V182.6C725.941 214.8 711.941 227.96 688.701 227.96C666.021 227.96 652.021 214.8 652.021 182.6V85.72C652.021 79.56 648.381 76.2 643.341 76.2C638.301 76.2 634.941 79.56 634.941 85.72V182.6C634.941 220.68 652.581 243.92 688.701 243.92Z" fill="white"/>
</svg>
