<svg width="151" height="154" viewBox="0 0 151 154" fill="none" xmlns="http://www.w3.org/2000/svg">
<path d="M127.5 22.7201C126.624 21.844 126.133 20.6574 126.138 19.4207V4.25554C126.138 1.90741 124.236 0.00488281 121.888 0.00488281H108.064C105.716 0.00488281 103.813 1.90741 103.813 4.25554V18.0739C103.813 20.4221 105.716 22.3246 108.064 22.3246H123.219C124.456 22.3246 125.643 22.8152 126.519 23.6864C127.395 24.5626 127.886 25.7492 127.881 26.9858V114.387C127.881 116.735 129.783 118.638 132.131 118.638H145.95C148.298 118.638 150.2 116.735 150.2 114.387V28.3526C150.2 26.0045 148.298 24.102 145.95 24.102H130.799C129.558 24.102 128.371 23.5963 127.5 22.7151V22.7201Z" fill="white"/>
<path d="M23.6815 71.8457C24.5577 70.9745 25.7393 70.4838 26.9759 70.4889H64.4809C66.819 70.4889 68.7165 68.5913 68.7165 66.2532V51.058C68.7165 49.8314 69.2071 48.6548 70.0733 47.7886C70.9495 46.9175 72.131 46.4318 73.3677 46.4318H88.5479C90.886 46.4318 92.7835 44.5343 92.7835 42.1962V28.3227C92.7835 25.9846 90.886 24.0871 88.5479 24.0871H73.3977C70.8243 24.0871 68.7365 21.9993 68.7315 19.4209V4.23564C68.7315 1.89753 66.834 0 64.4959 0H4.31074C1.93257 0 0.00500392 1.92757 0.00500392 4.30574V18.019C0.00500392 20.3972 1.93257 22.3247 4.31074 22.3247H65.8176C68.4011 22.3247 70.4939 24.4175 70.4939 27.0009V43.5179C70.4939 44.7496 70.0032 45.9362 69.132 46.8073C68.2609 47.6785 67.0743 48.1641 65.8427 48.1641H28.3227C25.9846 48.1641 24.0871 50.0617 24.0871 52.3998V67.595C24.0871 68.8266 23.6014 70.0082 22.7303 70.8794C21.8591 71.7505 20.6775 72.2362 19.4459 72.2362H4.23564C1.89753 72.2362 0 74.1337 0 76.4718V90.3253C0 92.6634 1.89753 94.5609 4.23564 94.5609H19.4459C20.6775 94.5609 21.8591 95.0466 22.7303 95.9177C23.6014 96.7889 24.0871 97.9705 24.0871 99.2021V114.407C24.0871 116.745 25.9846 118.643 28.3227 118.643H88.5129C90.891 118.643 92.8186 116.715 92.8186 114.337V100.629C92.8186 98.2508 90.891 96.3233 88.5129 96.3233H27.0009C25.7643 96.3233 24.5827 95.8376 23.7066 94.9664C22.8354 94.1003 22.3498 92.9237 22.3498 91.6971V75.1451C22.3397 73.9134 22.8204 72.7268 23.6915 71.8507L23.6815 71.8457Z" fill="white"/>
<path d="M143.166 40.7705C143.066 40.8706 142.931 40.9257 142.786 40.9307H140.673C140.533 40.9307 140.397 40.8706 140.292 40.7705C140.192 40.6704 140.137 40.5352 140.132 40.39V30.0562C140.132 29.7458 139.877 29.4905 139.566 29.4905H137.869C137.559 29.4905 137.303 29.7458 137.303 30.0562V40.39C137.303 40.5302 137.243 40.6654 137.143 40.7705C137.043 40.8706 136.908 40.9257 136.763 40.9307H134.65C134.51 40.9307 134.374 40.8706 134.269 40.7705C134.169 40.6654 134.114 40.5302 134.109 40.385V30.0562C134.109 29.7458 133.854 29.4905 133.543 29.4905H131.846C131.536 29.4905 131.28 29.7458 131.28 30.0562V40.1997C131.28 40.5102 131.536 40.7655 131.846 40.7655H133.663C133.804 40.7655 133.939 40.8256 134.044 40.9257C134.144 41.0309 134.199 41.166 134.204 41.3112V43.2288C134.204 43.5392 134.46 43.7945 134.77 43.7945H136.467C136.778 43.7945 137.033 43.5392 137.033 43.2288V41.2812C137.033 41.136 137.093 41.0008 137.193 40.8957C137.303 40.7755 137.464 40.7104 137.629 40.7154H139.742C139.887 40.7154 140.022 40.7755 140.127 40.8756C140.227 40.9758 140.282 41.111 140.287 41.2561V43.1737C140.287 43.4841 140.543 43.7395 140.853 43.7395H142.55C142.861 43.7395 143.116 43.4841 143.116 43.1737V41.2812C143.116 41.136 143.176 41.0008 143.276 40.8957C143.376 40.7955 143.512 40.7405 143.657 40.7355H145.574C145.885 40.7355 146.14 40.4801 146.14 40.1697V30.0562C146.14 29.7458 145.885 29.4905 145.574 29.4905H143.877C143.567 29.4905 143.311 29.7458 143.311 30.0562V40.39C143.311 40.5302 143.256 40.6654 143.166 40.7705Z" fill="black"/>
<path d="M140.076 67.5144V65.5618C140.076 65.2764 139.846 65.0461 139.56 65.0461H137.788C137.502 65.0461 137.272 65.2764 137.272 65.5618V67.5144C137.272 67.6546 137.217 67.7848 137.117 67.8799L137.077 67.92C136.982 68.0201 136.847 68.0752 136.711 68.0752H134.759C134.473 68.0752 134.243 68.3055 134.243 68.5909V75.9507C134.243 76.236 134.473 76.4663 134.759 76.4663H136.711C136.852 76.4663 136.982 76.5214 137.077 76.6216L137.117 76.6616C137.217 76.7567 137.272 76.8919 137.272 77.0271V78.9797C137.272 79.2651 137.502 79.4954 137.788 79.4954H139.56C139.846 79.4954 140.076 79.2651 140.076 78.9797V77.0271C140.076 76.8869 140.131 76.7567 140.231 76.6616L140.271 76.6216C140.366 76.5214 140.501 76.4663 140.637 76.4663H142.589C142.875 76.4663 143.105 76.236 143.105 75.9507V68.5909C143.105 68.3055 142.875 68.0752 142.589 68.0752H140.637C140.496 68.0752 140.366 68.0201 140.271 67.92L140.231 67.8799C140.131 67.7848 140.076 67.6496 140.076 67.5144ZM140.146 76.5114L140.106 76.5515C140.011 76.6516 139.876 76.7067 139.74 76.7067H137.608C137.467 76.7067 137.337 76.6516 137.242 76.5515L137.202 76.5114C137.102 76.4163 137.047 76.2811 137.047 76.1459V68.4106C137.047 68.2704 137.102 68.1403 137.202 68.0451L137.242 68.0051C137.337 67.905 137.472 67.8499 137.608 67.8499H139.74C139.881 67.8499 140.011 67.905 140.106 68.0051L140.146 68.0451C140.246 68.1403 140.301 68.2754 140.301 68.4106V76.1459C140.301 76.2861 140.246 76.4163 140.146 76.5114Z" fill="black"/>
<path d="M140.042 52.6948L139.992 52.7449C139.897 52.84 139.767 52.8901 139.637 52.8901H137.639C137.359 52.8901 137.133 52.6648 137.133 52.3844V47.7783C137.133 47.4979 136.908 47.2726 136.628 47.2726H134.82C134.54 47.2726 134.314 47.4979 134.314 47.7783V61.0209C134.314 61.3013 134.54 61.5266 134.82 61.5266H136.628C136.908 61.5266 137.133 61.3013 137.133 61.0209V56.1945C137.133 55.9141 137.359 55.6888 137.639 55.6888H139.617C139.752 55.6888 139.877 55.7439 139.972 55.834L140.022 55.884C140.117 55.9792 140.167 56.1094 140.167 56.2395V61.0209C140.167 61.3013 140.393 61.5266 140.673 61.5266H142.48C142.761 61.5266 142.986 61.3013 142.986 61.0209V56.4148C142.986 56.1344 142.761 55.9091 142.48 55.9091H140.503C140.368 55.9091 140.242 55.854 140.147 55.7639L140.097 55.7138C140.002 55.6187 139.952 55.4885 139.952 55.3584V53.2155C139.952 53.0803 140.007 52.9552 140.097 52.86L140.147 52.81C140.242 52.7148 140.373 52.6648 140.503 52.6648H142.48C142.761 52.6648 142.986 52.4395 142.986 52.1591V47.7733C142.986 47.4929 142.761 47.2676 142.48 47.2676H140.673C140.393 47.2676 140.167 47.4929 140.167 47.7733V52.3343C140.172 52.4645 140.127 52.5947 140.042 52.6898V52.6948Z" fill="black"/>
<path d="M140.077 85.4833V83.5758C140.077 83.2653 139.822 83.01 139.511 83.01H137.814C137.504 83.01 137.248 83.2653 137.248 83.5758V85.4833C137.248 85.6285 137.188 85.7637 137.088 85.8688C136.983 85.9689 136.848 86.024 136.703 86.029H134.805C134.495 86.029 134.239 86.2844 134.239 86.5948V96.9436C134.239 97.254 134.495 97.5093 134.805 97.5093H136.502C136.813 97.5093 137.068 97.254 137.068 96.9436V86.4045C137.068 86.2593 137.128 86.1241 137.228 86.019C137.333 85.9189 137.469 85.8638 137.614 85.8588H139.722C139.867 85.8588 140.002 85.9189 140.107 86.019C140.207 86.1241 140.262 86.2593 140.267 86.4045V96.9486C140.267 97.259 140.523 97.5143 140.833 97.5143H142.53C142.841 97.5143 143.096 97.259 143.096 96.9486V86.5998C143.096 86.2894 142.841 86.034 142.53 86.034H140.618C140.473 86.034 140.337 85.974 140.232 85.8738C140.132 85.7687 140.077 85.6285 140.077 85.4833Z" fill="black"/>
<path d="M140.262 103.878L140.232 103.848C140.132 103.748 140.077 103.613 140.077 103.473V101.535C140.077 101.245 139.841 101.009 139.551 101.009H137.804C137.513 101.009 137.278 101.245 137.278 101.535V103.473C137.278 103.613 137.223 103.748 137.123 103.848L137.093 103.878C136.993 103.978 136.858 104.033 136.717 104.033H134.775C134.484 104.033 134.249 104.269 134.249 104.559V114.943C134.249 115.233 134.484 115.469 134.775 115.469H136.497C136.787 115.469 137.023 115.233 137.023 114.943V109.641V106.937L137.093 107.007C137.193 107.107 137.248 107.243 137.248 107.383V109.32C137.248 109.611 137.483 109.846 137.774 109.846H139.521C139.811 109.846 140.047 109.611 140.047 109.32V107.393C140.047 107.253 140.102 107.117 140.202 107.017L140.272 106.947V114.923C140.272 115.213 140.507 115.449 140.798 115.449H142.545C142.835 115.449 143.071 115.213 143.071 114.923V104.569C143.071 104.279 142.835 104.043 142.545 104.043H140.633C140.492 104.043 140.357 103.983 140.257 103.883L140.262 103.878ZM140.142 106.877C140.042 106.977 139.907 107.032 139.766 107.032H137.634C137.493 107.032 137.358 106.977 137.258 106.877L137.223 106.842C137.123 106.742 137.068 106.607 137.068 106.467V104.349C137.068 104.209 137.123 104.073 137.223 103.973L137.258 103.938C137.358 103.838 137.493 103.783 137.634 103.783H139.756C139.897 103.783 140.032 103.838 140.132 103.938L140.167 103.973C140.267 104.073 140.322 104.209 140.322 104.349V106.477C140.322 106.627 140.257 106.772 140.147 106.872L140.142 106.877Z" fill="black"/>
<path d="M132.967 137.798L136.046 135.525H125.742V149.158H136.046V146.89H128.681V143.4H134.964V141.127H128.681V137.798H132.967Z" fill="white"/>
<path d="M117.962 140.842H114.382V137.798H120.095L123.174 135.53H111.438V149.163H117.582C121.026 149.163 123.004 147.601 123.004 144.882C123.004 142.163 121.211 140.847 117.962 140.847V140.842ZM117.451 146.89H114.382V143.11H117.451C119.319 143.11 120.19 143.74 120.19 144.997C120.19 146.254 119.269 146.885 117.451 146.885V146.89Z" fill="white"/>
<path d="M144.397 135.525H138.784V149.158H141.723V145.298H144.392C147.971 145.298 150.199 143.415 150.199 140.406C150.199 137.397 147.976 135.53 144.392 135.53L144.397 135.525ZM144.332 143.025H141.723V137.793H144.332C146.214 137.793 147.255 138.724 147.255 140.406C147.255 142.089 146.219 143.02 144.332 143.02V143.025Z" fill="white"/>
<path d="M106.391 146.204C105.635 146.619 104.759 146.84 103.853 146.84C101.199 146.84 99.2769 144.947 99.2769 142.339C99.2769 139.73 101.199 137.838 103.853 137.838C104.854 137.838 105.756 138.118 106.527 138.674L108.634 137.117L108.494 136.997C107.263 135.915 105.615 135.344 103.733 135.344C101.69 135.344 99.8376 136.03 98.5159 137.282C97.1841 138.539 96.4531 140.306 96.4531 142.264C96.4531 144.221 97.1841 146.024 98.5109 147.32C99.8426 148.622 101.69 149.338 103.718 149.338C105.746 149.338 107.688 148.597 108.945 147.255C107.978 146.539 107.042 145.853 107.042 145.853L106.391 146.209V146.204Z" fill="white"/>
<path d="M89.6434 142.346C89.6434 141.655 89.5834 140.974 89.4632 140.319L87.025 142.116C87.025 142.191 87.025 142.271 87.025 142.346C87.025 147.148 83.1198 151.058 78.3134 151.058C73.507 151.058 69.6018 147.153 69.6018 142.346C69.6018 137.54 73.507 133.635 78.3134 133.635C80.1358 133.635 81.823 134.195 83.2249 135.157L85.4278 133.535C83.4852 131.963 81.0069 131.021 78.3134 131.021C72.06 131.021 66.9883 136.093 66.9883 142.346C66.9883 148.6 72.06 153.671 78.3134 153.671C84.5667 153.671 89.6384 148.6 89.6384 142.346H89.6434Z" fill="white"/>
<path d="M87.2805 135.417C87.8162 136.108 88.2718 136.864 88.6373 137.67L78.3185 145.275L74.0078 142.571V139.317L78.3185 142.021L87.2805 135.417Z" fill="white"/>
</svg>
